# xmcd
#
# Track frame offsets:
#	150
#	17792
#	36210
#	57807
#	74807
#	94092
#	112810
#	129015
#	146602
#	167412
#	185520
#	201045
#	218087
#	236277
#	254172
#	271470
#	285447
#	301612
#	318522
#
# Disc length: 4488 seconds
#
# Revision: 0
# Processed by: cddbd v1.5.2PL0 Copyright (c) Steve Scherf et al.
# Submitted via: EZCDAudioConverter 7.1.8.1
#
DISCID=0b118613
DTITLE=Various Artist - Viva Dance 97
DYEAR=1997
DGENRE=Dance
TTITLE0=Scooter - The Age Of Love (Single Edit)
TTITLE1=B.B.E. presents Enter - Load and Save (B.B.E. Radio Mix)
TTITLE2=E-Rotic - The Winner Takes It All (Radio Edit)
TTITLE3=Backstreet Boys - Everybody (7" Version)
TTITLE4=C-Block - Summertime (Radio Edit
TTITLE5=Haddaway - What About Me (Radio Version)
TTITLE6=Whigfield - Baby Boy (Orginal Radio Edit)
TTITLE7=Mr. President - JoJo Action (Radio Summer Edit)
TTITLE8=Jam and Spoon feat. Plavka - Kiss Away (Radio Version)
TTITLE9=Ricky Martin - Maria (Spanglish Radio Edit)
TTITLE10=Vertigo - Magic Eyes (Radio Mix)
TTITLE11=T-Spoon - Sex On The Beach (Ibiza Radio Mix)
TTITLE12=Peter Andre - All About Us (Radio Edit)
TTITLE13=Dr. Motte and WestBam - Sunshine (Single Summer Edit)
TTITLE14=Melodie Mc feat. Jocelyn Brown - Real Man (Radio Version)
TTITLE15=U.S.U.R.A. - Open Your Mind '97 (Dj Quicksilver Radio edit)
TTITLE16=Cocina Latina - Spanish Hustle (Single Radio Mix)
TTITLE17=Tic Tac Toe - Mr. Wichtig (Radio Summer Mix)
TTITLE18=Funky Diamonds - It's My Game (Radio Cut)
EXTD=
EXTT0=
EXTT1=
EXTT2=
EXTT3=
EXTT4=
EXTT5=
EXTT6=
EXTT7=
EXTT8=
EXTT9=
EXTT10=
EXTT11=
EXTT12=
EXTT13=
EXTT14=
EXTT15=
EXTT16=
EXTT17=
EXTT18=
PLAYORDER=
